PathFileType	3	(X/Y/Z)	D:\minhoCalibration\240510\subject3_KPNP\preferred\preferred12.trc
DataRate	CameraRate	NumFrames	NumMarkers	Units	OrigDataRate	OrigDataStartFrame	OrigNumFrames
200.0	200.0	24	10	mm	200.0	380	136	
Frame#	Time	Left_Ankle_Outer1			Left_Ankle_Inner1			Left_Knee_Outer1			Left_Knee_Inner1			Left_Wrist1			Right_Wrist1			Right_Knee_Inner1			Right_Knee_Outer1			Right_Ankle_Inner1			Right_Ankle_Outer1			
		X1	Y1	Z1	X2	Y2	Z2	X3	Y3	Z3	X4	Y4	Z4	X5	Y5	Z5	X6	Y6	Z6	X7	Y7	Z7	X8	Y8	Z8	X9	Y9	Z9	X10	Y10	Z10	
380	1.89	-314.2644	131.88199	-514.37671	-363.83289	150.7989	-491.05569	-134.68314	524.64117	-436.67007	-199.81989	542.62848	-357.1604	-139.98907	911.34155	-670.39453	-390.37909	1086.0432	-439.3425	-363.36584	852.81354	-59.251484	-408.43597	969.67963	-64.077927	-744.28558	721.06989	-204.8465	-788.54395	808.22455	-168.56462
381	1.895	-314.05521	131.83301	-514.91541	-364.05835	150.38625	-491.09204	-133.75751	523.33801	-438.48608	-197.30167	541.58423	-356.82135	-144.20456	908.35345	-673.45367	-386.43976	1089.3351	-439.95477	-349.01306	870.33124	-54.338562	-387.93015	987.23395	-62.771469	-744.76929	738.96552	-157.59669	-783.64044	829.79962	-125.20776
382	1.9	-314.56519	130.91165	-515.33551	-364.24103	149.85927	-491.17737	-133.07698	521.9588	-439.78793	-195.91052	540.44769	-356.49323	-147.7961	905.41351	-676.52997	-382.60052	1092.6239	-440.39325	-335.14005	887.32581	-51.058529	-368.98724	1003.672	-63.301868	-741.33856	757.15161	-110.20144	-775.81812	850.78278	-81.938965
383	1.905	-315.63513	129.76118	-515.17059	-364.48514	149.21478	-491.40866	-132.66635	520.44531	-440.45496	-194.5992	539.29932	-356.47705	-151.33101	902.36871	-679.36365	-379.33899	1095.179	-440.83884	-322.04858	903.51996	-49.3311	-350.31497	1018.895	-65.953949	-734.45831	777.6676	-61.092613	-765.00177	873.5119	-37.33633
384	1.91	-315.9577	128.96956	-515.54962	-364.85828	148.53069	-491.74237	-132.19485	519.10529	-440.63602	-193.86632	538.15326	-356.38535	-155.08421	898.70764	-681.97668	-374.36072	1098.3091	-441.48727	-310.35388	918.67743	-48.846443	-333.92188	1033.212	-69.902641	-723.34576	798.10651	-14.079008	-750.54852	895.45117	5.4485021
385	1.915	-315.79575	128.65567	-516.23944	-365.24521	147.93269	-492.19562	-131.87112	517.83118	-440.22604	-192.98352	537.52777	-355.52097	-158.76437	894.86682	-684.39026	-371.06784	1100.6396	-442.44666	-299.88766	933.06921	-49.263424	-319.21527	1045.7882	-75.527664	-707.95844	819.84076	36.407505	-732.85229	918.1806	51.594185
386	1.92	-316.96121	127.4688	-516.09967	-365.61227	147.37016	-492.5946	-131.49356	516.47296	-439.52573	-193.40582	536.11121	-355.00851	-162.57454	890.78894	-686.51208	-366.29755	1102.5613	-443.87289	-291.09869	946.85437	-50.703819	-307.46619	1056.1982	-82.130081	-688.47504	843.53387	86.466255	-711.39539	942.63617	97.347458
387	1.925	-316.67596	127.50671	-516.77515	-366.07626	146.81506	-492.74863	-131.26988	515.07617	-438.41327	-193.77652	534.92621	-354.54642	-166.61334	886.4837	-688.27209	-361.86432	1103.9675	-445.54385	-284.34604	959.50537	-52.322025	-299.24002	1064.3785	-89.13176	-664.14435	869.1228	136.24229	-684.7309	968.84833	141.94553
388	1.93	-317.14105	127.04601	-516.95996	-366.58591	146.27756	-493.03442	-130.99948	513.69269	-437.26285	-194.14343	533.95715	-353.61707	-170.11862	882.11407	-690.00885	-358.2439	1104.608	-447.31778	-278.43469	970.94159	-54.725277	-293.95782	1070.9712	-96.271431	-633.65845	895.89093	183.1497	-653.31061	995.94733	185.06
389	1.935	-317.63446	126.65308	-517.09454	-367.11615	145.91504	-493.22437	-130.9935	512.42188	-435.99234	-194.28415	532.8858	-352.96454	-173.68018	877.62756	-691.3205	-355.40973	1105.7021	-449.51273	-275.0668	980.63873	-57.728401	-291.89218	1076.4113	-102.7057	-598.13971	923.13007	227.70377	-616.80322	1023.5882	224.85039
390	1.94	-318.25275	126.33302	-517.08307	-367.67517	145.60632	-493.30396	-130.85344	511.17169	-434.70529	-194.62532	531.96149	-352.05344	-177.43295	873.11084	-692.11511	-352.40842	1106.1241	-452.05466	-273.48819	987.96558	-61.04673	-292.18005	1080.6954	-108.35293	-558.43097	951.61176	266.79846	-575.53082	1052.4507	259.27808
391	1.945	-318.75424	126.25153	-517.091	-368.25336	145.44359	-493.24466	-130.84904	509.97586	-433.45081	-194.83197	531.09149	-350.84192	-180.83971	868.90833	-692.40991	-349.88309	1106.2579	-454.88361	-273.45523	992.80933	-63.861496	-294.29349	1083.7794	-112.79966	-510.75308	980.21185	299.97159	-530.08392	1080.4733	287.25375
392	1.95	-320.0499	125.68088	-516.68445	-368.81354	145.36382	-493.04745	-130.81198	508.92151	-432.24939	-195.20694	530.2572	-349.45978	-184.06691	865.1062	-691.98956	-347.93616	1106.325	-457.6626	-274.03894	996.20697	-66.072044	-297.42224	1085.9371	-116.17889	-459.38101	1008.4455	324.25784	-481.41486	1106.4446	307.45874
393	1.955	-320.77341	125.7603	-516.43567	-369.47211	145.47365	-492.87369	-130.99802	508.10553	-430.93448	-194.8815	529.87646	-347.9758	-187.37318	861.84045	-690.6084	-346.74622	1106.7064	-460.03482	-274.91595	998.97943	-68.172348	-302.19406	1086.7448	-118.35844	-416.80246	1032.3615	336.5191	-428.67041	1131.1276	317.98151
394	1.96	-320.74335	126.48216	-516.54828	-369.93307	145.48247	-492.33612	-131.15343	507.46799	-429.6908	-194.80217	529.17816	-346.35934	-190.26154	859.39624	-688.15753	-346.40314	1107.7937	-461.42453	-275.25064	1001.0522	-70.270271	-308.13181	1086.6117	-119.3321	-386.15143	1056.9536	339.52948	-389.86453	1155.0173	312.76459
395	1.965	-321.57358	126.30956	-516.36115	-370.55341	145.76018	-492.05267	-131.56656	507.1228	-428.15213	-195.06587	528.39661	-343.97577	-192.62303	857.95972	-684.68091	-347.23401	1109.7417	-461.59744	-274.37683	1001.7762	-71.875366	-314.23822	1087.5557	-119.20727	-368.93594	1068.4797	338.58221	-367.40952	1166.1617	304.86078
396	1.97	-322.2504	126.31474	-515.84222	-370.87723	145.735	-491.78888	-131.99164	506.98602	-426.46198	-194.76569	527.58636	-341.802	-194.47581	857.19452	-679.97095	-348.99762	1112.1754	-460.91519	-271.30063	1000.7902	-72.815544	-318.51031	1089.7516	-119.08992	-366.02719	1081.4828	340.07053	-360.78525	1176.3466	301.26813
397	1.975	-321.40887	126.89194	-516.00647	-370.84564	145.63136	-491.74774	-132.8269	507.0719	-424.18811	-194.60686	527.24835	-338.65021	-195.52625	856.8183	-674.37518	-351.72845	1113.0803	-459.93491	-266.87183	1000.3542	-72.926987	-322.82886	1092.6292	-118.85592	-365.60083	1079.0905	334.59393	-360.66751	1179.8716	303.07367
398	1.98	-320.91852	126.78851	-515.66998	-370.44623	145.48259	-491.85468	-133.91196	507.36017	-421.53067	-194.64761	526.72223	-335.78101	-195.44926	856.75916	-668.06335	-355.29993	1113.3713	-458.20572	-262.39368	1002.1614	-73.09108	-321.94156	1097.6149	-120.55331	-365.72205	1071.5239	330.95975	-362.59476	1174.0579	307.15286
399	1.985	-319.76016	126.69514	-515.58099	-369.79263	145.17453	-492.18839	-135.23659	507.82925	-418.42422	-196.11122	526.229	-331.76202	-194.33115	856.80719	-661.46899	-359.49365	1112.0214	-456.24863	-258.8862	1005.6455	-73.790939	-314.47806	1100.9539	-121.55578	-364.37399	1064.6675	331.5094	-367.75336	1165.3669	309.90591
400	1.99	-318.5918	126.33979	-515.24219	-368.83191	144.6256	-492.88202	-137.10336	508.38846	-414.57645	-197.90656	525.73029	-328.97952	-192.9821	856.62665	-654.81488	-364.53317	1110.2155	-453.80478	-256.73846	1009.7511	-75.082069	-303.39743	1101.7466	-119.67588	-361.47101	1059.0658	333.01038	-371.34723	1158.0701	311.60681
401	1.995	-317.16068	125.87617	-515.17188	-368.04294	143.89035	-493.82968	-138.93951	509.10376	-410.29855	-200.99664	525.69952	-325.94208	-191.23978	856.48267	-648.57471	-369.38541	1108.1753	-451.72617	-256.57764	1013.4841	-75.807716	-292.09808	1098.3134	-118.65751	-356.4136	1051.4015	332.57159	-372.87619	1150.4042	312.51474
402	2	-316.02219	125.1797	-515.14355	-367.16016	142.97765	-494.95145	-141.01871	509.64224	-405.52609	-205.36198	525.74988	-323.21069	-189.22966	856.46326	-643.20032	-374.37192	1105.8986	-449.72812	-258.6167	1015.3268	-75.351944	-284.22958	1093.8541	-121.53991	-352.4545	1042.4082	332.16479	-372.85825	1141.5588	314.67755
403	2.005	-315.02472	123.96941	-515.76355	-366.64746	141.90018	-496.33853	-143.03441	510.3436	-400.48611	-210.71359	525.94556	-321.07327	-187.35698	856.43353	-638.82257	-379.5744	1103.2543	-447.81854	-262.66727	1014.0394	-73.914139	-283.76697	1088.1619	-125.91831	-348.81448	1033.1957	330.90778	-371.60986	1132.1996	317.92719
